<svg width="23" height="22" viewBox="0 0 23 22" fill="none" xmlns="http://www.w3.org/2000/svg">
<path d="M13.2211 11L21.6211 2.61334C21.8722 2.36227 22.0133 2.02174 22.0133 1.66667C22.0133 1.3116 21.8722 0.971075 21.6211 0.720003C21.3701 0.468932 21.0295 0.327881 20.6745 0.327881C20.3194 0.327881 19.9789 0.468932 19.7278 0.720003L11.3411 9.12L2.95448 0.720003C2.70341 0.468932 2.36288 0.327881 2.00781 0.327881C1.65274 0.327881 1.31222 0.468932 1.06115 0.720003C0.810074 0.971075 0.669024 1.3116 0.669024 1.66667C0.669024 2.02174 0.810074 2.36227 1.06115 2.61334L9.46115 11L1.06115 19.3867C0.936175 19.5106 0.836982 19.6581 0.769291 19.8206C0.701599 19.983 0.666748 20.1573 0.666748 20.3333C0.666748 20.5094 0.701599 20.6836 0.769291 20.8461C0.836982 21.0086 0.936175 21.1561 1.06115 21.28C1.1851 21.405 1.33256 21.5042 1.49504 21.5719C1.65752 21.6396 1.8318 21.6744 2.00781 21.6744C2.18383 21.6744 2.3581 21.6396 2.52058 21.5719C2.68306 21.5042 2.83053 21.405 2.95448 21.28L11.3411 12.88L19.7278 21.28C19.8518 21.405 19.9992 21.5042 20.1617 21.5719C20.3242 21.6396 20.4985 21.6744 20.6745 21.6744C20.8505 21.6744 21.0248 21.6396 21.1872 21.5719C21.3497 21.5042 21.4972 21.405 21.6211 21.28C21.7461 21.1561 21.8453 21.0086 21.913 20.8461C21.9807 20.6836 22.0155 20.5094 22.0155 20.3333C22.0155 20.1573 21.9807 19.983 21.913 19.8206C21.8453 19.6581 21.7461 19.5106 21.6211 19.3867L13.2211 11Z" fill="white"/>
</svg>
