<svg width="22" height="23" viewBox="0 0 22 23" fill="none" xmlns="http://www.w3.org/2000/svg">
<path opacity="0.4" d="M1.75472 9.52587C1.39499 9.52587 1.09668 9.22756 1.09668 8.86783V6.67437C1.09668 4.12996 3.1673 2.06812 5.70294 2.06812H7.8964C8.25612 2.06812 8.55443 2.36643 8.55443 2.72615C8.55443 3.08588 8.25612 3.38419 7.8964 3.38419H5.70294C3.88676 3.38419 2.41275 4.85819 2.41275 6.67437V8.86783C2.41275 9.22756 2.11444 9.52587 1.75472 9.52587Z" fill="white"/>
<path d="M19.3024 9.52587C18.9427 9.52587 18.6444 9.22756 18.6444 8.86783V6.67437C18.6444 4.85819 17.1704 3.38419 15.3542 3.38419H13.1607C12.801 3.38419 12.5027 3.08588 12.5027 2.72615C12.5027 2.36643 12.801 2.06812 13.1607 2.06812H15.3542C17.8898 2.06812 19.9604 4.12996 19.9604 6.67437V8.86783C19.9604 9.22756 19.6621 9.52587 19.3024 9.52587Z" fill="white"/>
<path opacity="0.4" d="M15.3542 20.9319H14.0382C13.6784 20.9319 13.3801 20.6336 13.3801 20.2739C13.3801 19.9142 13.6784 19.6159 14.0382 19.6159H15.3542C17.1704 19.6159 18.6444 18.1419 18.6444 16.3257V15.0096C18.6444 14.6499 18.9427 14.3516 19.3025 14.3516C19.6622 14.3516 19.9605 14.6499 19.9605 15.0096V16.3257C19.9605 18.8701 17.8899 20.9319 15.3542 20.9319Z" fill="white"/>
<path d="M7.8964 20.9319H5.70294C3.1673 20.9319 1.09668 18.87 1.09668 16.3256V14.1322C1.09668 13.7724 1.39499 13.4741 1.75472 13.4741C2.11444 13.4741 2.41275 13.7724 2.41275 14.1322V16.3256C2.41275 18.1418 3.88676 19.6158 5.70294 19.6158H7.8964C8.25612 19.6158 8.55443 19.9141 8.55443 20.2738C8.55443 20.6336 8.25612 20.9319 7.8964 20.9319Z" fill="white"/>
<path d="M7.45777 10.9561C8.85332 10.9561 9.98463 9.82475 9.98463 8.42921C9.98463 7.03366 8.85332 5.90234 7.45777 5.90234C6.06222 5.90234 4.93091 7.03366 4.93091 8.42921C4.93091 9.82475 6.06222 10.9561 7.45777 10.9561Z" fill="white"/>
<path opacity="0.4" d="M6.58039 17.0978C7.49137 17.0978 8.22987 16.3593 8.22987 15.4483C8.22987 14.5373 7.49137 13.7988 6.58039 13.7988C5.66941 13.7988 4.93091 14.5373 4.93091 15.4483C4.93091 16.3593 5.66941 17.0978 6.58039 17.0978Z" fill="white"/>
<path opacity="0.4" d="M14.4769 9.2013C15.3879 9.2013 16.1264 8.46281 16.1264 7.55182C16.1264 6.64084 15.3879 5.90234 14.4769 5.90234C13.5659 5.90234 12.8274 6.64084 12.8274 7.55182C12.8274 8.46281 13.5659 9.2013 14.4769 9.2013Z" fill="white"/>
<path d="M13.5994 17.0979C14.9949 17.0979 16.1262 15.9666 16.1262 14.5711C16.1262 13.1755 14.9949 12.0442 13.5994 12.0442C12.2038 12.0442 11.0725 13.1755 11.0725 14.5711C11.0725 15.9666 12.2038 17.0979 13.5994 17.0979Z" fill="white"/>
</svg>
