<svg width="32" height="32" viewBox="0 0 32 32" fill="none" xmlns="http://www.w3.org/2000/svg">
<path opacity="0.4" d="M25.2532 7.22659L18.3599 3.23992C17.0399 2.47992 14.9732 2.47992 13.6532 3.23992L6.69319 7.25325C3.93319 9.11992 3.77319 9.39992 3.77319 12.3733V19.6133C3.77319 22.5866 3.93319 22.8799 6.74653 24.7733L13.6399 28.7599C14.3065 29.1466 15.1599 29.3333 15.9999 29.3333C16.8399 29.3333 17.6932 29.1466 18.3465 28.7599L25.3065 24.7466C28.0665 22.8799 28.2265 22.5999 28.2265 19.6266V12.3733C28.2265 9.39992 28.0665 9.11992 25.2532 7.22659Z" fill="white"/>
<path d="M16.0001 20.3334C18.3933 20.3334 20.3334 18.3933 20.3334 16.0001C20.3334 13.6068 18.3933 11.6667 16.0001 11.6667C13.6068 11.6667 11.6667 13.6068 11.6667 16.0001C11.6667 18.3933 13.6068 20.3334 16.0001 20.3334Z" fill="white"/>
</svg>
