<svg width="810" height="803" viewBox="0 0 810 803" fill="none" xmlns="http://www.w3.org/2000/svg">
<rect width="400.549" height="899.672" rx="33.9354" transform="matrix(1 0 -0.455111 0.890435 409.451 6.10352e-05)" fill="white"/>
<path d="M64.1528 479.635C47.9294 511.377 0 499.838 0 464.191V33.9354C0 15.1934 15.1934 6.10352e-05 33.9354 6.10352e-05H253.844C279.202 6.10352e-05 295.602 26.7999 284.061 49.3799L64.1528 479.635Z" fill="white"/>
<path d="M745.833 322.663C762.057 290.921 809.986 302.46 809.986 338.107L809.986 768.362C809.986 787.104 794.792 802.297 776.05 802.297L556.142 802.297C530.784 802.297 514.384 775.497 525.925 752.917L745.833 322.663Z" fill="white"/>
</svg>
