<svg width="205" height="203" viewBox="0 0 205 203" fill="none" xmlns="http://www.w3.org/2000/svg">
<rect width="101.04" height="226.946" rx="12.63" transform="matrix(1 0 -0.455111 0.890435 103.286 0)" fill="white"/>
<path opacity="0.5" d="M23.8762 105.937C17.8382 117.751 0 113.456 0 100.189V12.63C0 5.65466 5.65466 0 12.63 0H57.3829C66.8208 0 72.9244 9.97437 68.6291 18.3781L23.8762 105.937Z" fill="white"/>
<path opacity="0.5" d="M180.446 96.4454C186.484 84.632 204.322 88.9265 204.322 102.194L204.322 189.753C204.322 196.728 198.668 202.383 191.692 202.383L146.939 202.383C137.502 202.383 131.398 192.408 135.693 184.005L180.446 96.4454Z" fill="white"/>
</svg>
