<svg width="745" height="738" viewBox="0 0 745 738" fill="none" xmlns="http://www.w3.org/2000/svg">
<g opacity="0.1">
<rect width="368.407" height="827.476" rx="33.9354" transform="matrix(1 0 -0.455111 0.890435 376.594 0)" fill="white"/>
<path d="M64.1527 431.074C47.9294 462.815 0 451.276 0 415.629V33.9354C0 15.1934 15.1934 0 33.9354 0H229.024C254.382 0 270.782 26.7999 259.241 49.3798L64.1527 431.074Z" fill="white"/>
<path d="M680.834 306.843C697.058 275.101 744.987 286.64 744.987 322.287L744.987 703.98C744.987 722.722 729.793 737.915 711.051 737.915L515.964 737.915C490.606 737.915 474.206 711.115 485.747 688.535L680.834 306.843Z" fill="white"/>
</g>
</svg>
